{"accessors" : [{"bufferView" : 0, "byteOffset" : 0, "componentType" : 5123, "count" : 576, "type" : "SCALAR", "max" : [279], "min" : [0]}, {"bufferView" : 1, "byteOffset" : 0, "componentType" : 5126, "count" : 280, "type" : "VEC3", "max" : [0.30000001192092896, 0.4099999964237213, 0.6200000047683716], "min" : [-0.30000001192092896, -0.4099999964237213, -0.6200000047683716], "name" : "POSITION"}, {"bufferView" : 1, "byteOffset" : 12, "componentType" : 5126, "count" : 280, "type" : "VEC2", "max" : [0.9946630001068115, 0.9799519777297974], "min" : [0.006374000106006861, 0.015420019626617432], "name" : "TEXCOORD_0"}, {"bufferView" : 1, "byteOffset" : 20, "componentType" : 5126, "count" : 280, "type" : "VEC3", "max" : [1.0000044107437134, 1.0000044107437134, 1.0000044107437134], "min" : [-1.0000044107437134, -1.0000044107437134, -1.0000044107437134], "name" : "NORMAL"}, {"bufferView" : 0, "byteOffset" : 1152, "componentType" : 5123, "count" : 348, "type" : "SCALAR", "max" : [151], "min" : [0]}, {"bufferView" : 2, "byteOffset" : 0, "componentType" : 5126, "count" : 152, "type" : "VEC3", "max" : [0.2800000011920929, 0.38999998569488525, -0.010614000260829926], "min" : [-0.32499998807907104, 0.3100000023841858, -0.5793859958648682], "name" : "POSITION"}, {"bufferView" : 2, "byteOffset" : 12, "componentType" : 5126, "count" : 152, "type" : "VEC2", "max" : [0.9977229833602905, 0.9828959703445435], "min" : [0.0028909998945891857, 0.077534019947052], "name" : "TEXCOORD_0"}, {"bufferView" : 2, "byteOffset" : 20, "componentType" : 5126, "count" : 152, "type" : "VEC3", "max" : [1.0000044107437134, 1.0000044107437134, 1.0000044107437134], "min" : [-1.0000044107437134, -1.0000044107437134, -1.0000044107437134], "name" : "NORMAL"}, {"bufferView" : 0, "byteOffset" : 1848, "componentType" : 5123, "count" : 348, "type" : "SCALAR", "max" : [151], "min" : [0]}, {"bufferView" : 3, "byteOffset" : 0, "componentType" : 5126, "count" : 152, "type" : "VEC3", "max" : [0.2800000011920929, 0.38999998569488525, 0.5793859958648682], "min" : [-0.32499998807907104, 0.3100000023841858, 0.010614000260829926], "name" : "POSITION"}, {"bufferView" : 3, "byteOffset" : 12, "componentType" : 5126, "count" : 152, "type" : "VEC2", "max" : [0.9977229833602905, 0.9828959703445435], "min" : [0.0028909998945891857, 0.077534019947052], "name" : "TEXCOORD_0"}, {"bufferView" : 3, "byteOffset" : 20, "componentType" : 5126, "count" : 152, "type" : "VEC3", "max" : [1.0000044107437134, 1.0000044107437134, 1.0000044107437134], "min" : [-1.0000044107437134, -1.0000044107437134, -1.0000044107437134], "name" : "NORMAL"}], "asset" : {"generator" : "Aspose.3D 24.6.0", "version" : "2.0"}, "buffers" : [{"uri" : "buffer.bin", "byteLength" : 21248}], "bufferViews" : [{"buffer" : 0, "byteOffset" : 0, "byteLength" : 2544, "target" : 34963}, {"buffer" : 0, "byteOffset" : 2548, "byteLength" : 8960, "byteStride" : 32, "target" : 34962}, {"buffer" : 0, "byteOffset" : 11512, "byteLength" : 4864, "byteStride" : 32, "target" : 34962}, {"buffer" : 0, "byteOffset" : 16380, "byteLength" : 4864, "byteStride" : 32, "target" : 34962}], "meshes" : [{"primitives" : [{"attributes" : {"POSITION" : 1, "TEXCOORD_0" : 2, "NORMAL" : 3}, "indices" : 0, "mode" : 4}], "name" : ""}, {"primitives" : [{"attributes" : {"POSITION" : 5, "TEXCOORD_0" : 6, "NORMAL" : 7}, "indices" : 4, "mode" : 4}], "name" : ""}, {"primitives" : [{"attributes" : {"POSITION" : 9, "TEXCOORD_0" : 10, "NORMAL" : 11}, "indices" : 8, "mode" : 4}], "name" : ""}], "nodes" : [{"mesh" : 0, "name" : "Desk.001_Cubo.001"}, {"mesh" : 1, "name" : "Drawer_1_Cubo.009"}, {"mesh" : 2, "name" : "Drawer_1.001_Cubo.003"}], "scene" : 0, "scenes" : [{"nodes" : [0, 1, 2]}]}