{"accessors" : [{"bufferView" : 0, "byteOffset" : 0, "componentType" : 5123, "count" : 576, "type" : "SCALAR", "max" : [575], "min" : [0]}, {"bufferView" : 1, "byteOffset" : 0, "componentType" : 5126, "count" : 576, "type" : "VEC3", "max" : [0.9999961853027344, 1, 1], "min" : [-123, -1, -1], "name" : "POSITION"}, {"bufferView" : 1, "byteOffset" : 12, "componentType" : 5126, "count" : 576, "type" : "VEC3", "max" : [1.0000044107437134, 1.0000044107437134, 1.0000044107437134], "min" : [-1.0000044107437134, -1.0000044107437134, -1.0000044107437134], "name" : "NORMAL"}, {"bufferView" : 1, "byteOffset" : 24, "componentType" : 5126, "count" : 576, "type" : "VEC2", "max" : [0.9946630001068115, 0.9799519181251526], "min" : [0.006374001037329435, 0.015420019626617432], "name" : "TEXCOORD_0"}, {"bufferView" : 0, "byteOffset" : 1152, "componentType" : 5123, "count" : 348, "type" : "SCALAR", "max" : [347], "min" : [0]}, {"bufferView" : 2, "byteOffset" : 0, "componentType" : 5126, "count" : 348, "type" : "VEC3", "max" : [1, 2.0626909732818604, 0.8984375], "min" : [-1, -3.1642329692840576, -1.1015620231628418], "name" : "POSITION"}, {"bufferView" : 2, "byteOffset" : 12, "componentType" : 5126, "count" : 348, "type" : "VEC3", "max" : [1.0000044107437134, 1.0000044107437134, 1.0000044107437134], "min" : [-1.0000044107437134, -1.0000044107437134, -1.0000044107437134], "name" : "NORMAL"}, {"bufferView" : 2, "byteOffset" : 24, "componentType" : 5126, "count" : 348, "type" : "VEC2", "max" : [0.9977225065231323, 0.9828961491584778], "min" : [0.0028914210852235556, 0.07753348350524902], "name" : "TEXCOORD_0"}, {"bufferView" : 0, "byteOffset" : 1848, "componentType" : 5123, "count" : 348, "type" : "SCALAR", "max" : [347], "min" : [0]}, {"bufferView" : 3, "byteOffset" : 0, "componentType" : 5126, "count" : 348, "type" : "VEC3", "max" : [1, 2.0626909732818604, 0.8984375], "min" : [-1, -3.1642329692840576, -1.1015620231628418], "name" : "POSITION"}, {"bufferView" : 3, "byteOffset" : 12, "componentType" : 5126, "count" : 348, "type" : "VEC3", "max" : [1.0000044107437134, 1.0000044107437134, 1.0000044107437134], "min" : [-1.0000044107437134, -1.0000044107437134, -1.0000044107437134], "name" : "NORMAL"}, {"bufferView" : 3, "byteOffset" : 24, "componentType" : 5126, "count" : 348, "type" : "VEC2", "max" : [0.9977225065231323, 0.9828961491584778], "min" : [0.0028914210852235556, 0.07753348350524902], "name" : "TEXCOORD_0"}], "asset" : {"generator" : "Aspose.3D 25.3.0", "version" : "2.0"}, "buffers" : [{"uri" : "data:application/octet-stream;base64,", "byteLength" : 43264}], "bufferViews" : [{"buffer" : 0, "byteOffset" : 0, "byteLength" : 2544, "target" : 34963}, {"buffer" : 0, "byteOffset" : 2548, "byteLength" : 18432, "byteStride" : 32, "target" : 34962}, {"buffer" : 0, "byteOffset" : 20984, "byteLength" : 11136, "byteStride" : 32, "target" : 34962}, {"buffer" : 0, "byteOffset" : 32124, "byteLength" : 11136, "byteStride" : 32, "target" : 34962}], "images" : [{"uri" : "Material_Base_color.png.001.png"}, {"uri" : "Material.001_Base_color.png"}], "materials" : [{"name" : "Material", "pbrMetallicRoughness" : {"baseColorFactor" : [1, 1, 1, 1], "baseColorTexture" : {"index" : 0, "texCoord" : 0}, "metallicFactor" : 1, "roughnessFactor" : 1}, "emissiveFactor" : [0, 0, 0], "alphaMode" : "OPAQUE", "doubleSided" : false}, {"name" : "Material.001", "pbrMetallicRoughness" : {"baseColorFactor" : [1, 1, 1, 1], "baseColorTexture" : {"index" : 1, "texCoord" : 0}, "metallicFactor" : 1, "roughnessFactor" : 1}, "emissiveFactor" : [0, 0, 0], "alphaMode" : "OPAQUE", "doubleSided" : false}], "meshes" : [{"primitives" : [{"attributes" : {"POSITION" : 1, "NORMAL" : 2, "TEXCOORD_0" : 3}, "indices" : 0, "material" : 0, "mode" : 4}], "name" : ""}, {"primitives" : [{"attributes" : {"POSITION" : 5, "NORMAL" : 6, "TEXCOORD_0" : 7}, "indices" : 4, "material" : 1, "mode" : 4}], "name" : ""}, {"primitives" : [{"attributes" : {"POSITION" : 9, "NORMAL" : 10, "TEXCOORD_0" : 11}, "indices" : 8, "material" : 1, "mode" : 4}], "name" : ""}], "nodes" : [{"matrix" : [0.01, 0, 0, 0, 0, 0.3, 0, 0, 0, 0, 0.41, 0, 0.61, -5.00478E-10, 0, 1], "mesh" : 0, "name" : "Desk.001"}, {"matrix" : [0.2843857, 0, 0, 0, 0, 0.1157469, 0, 0, 0, 0, 0.04, 0, 0.295, 0.08625, 0.3540625, 1], "mesh" : 1, "name" : "Drawer 1"}, {"matrix" : [0.2843857, 0, 0, 0, 0, 0.1157469, 0, 0, 0, 0, 0.04, 0, -0.295, 0.08625, 0.3540625, 1], "mesh" : 2, "name" : "Drawer 1.001"}, {"children" : [0, 1, 2], "matrix" : [-2.8213E-07, 1, 0, 0, -1, -2.8213E-07, 0, 0, 0, 0, 1, 0, 0, 0, 0, 1], "name" : "Desk"}], "samplers" : [{"magFilter" : 9729, "minFilter" : 9987, "wrapS" : 10497, "wrapT" : 10497}, {"magFilter" : 9729, "minFilter" : 9987, "wrapS" : 10497, "wrapT" : 10497}], "scene" : 0, "scenes" : [{"nodes" : [3]}], "textures" : [{"sampler" : 0, "source" : 0, "name" : "Material_Base_color_png_001"}, {"sampler" : 1, "source" : 1, "name" : "Material_001_Base_color_png"}]}